<?xml version="1.0" encoding="UTF-8" standalone="no"?>
<!-- Generator: Adobe Illustrator 26.5.0, SVG Export Plug-In . SVG Version: 6.00 Build 0)  -->

<svg
   version="1.1"
   id="Layer_1"
   x="0px"
   y="0px"
   viewBox="0 0 2521 2911"
   style="enable-background:new 0 0 2521 2911;"
   xml:space="preserve"
   sodipodi:docname="neckaR.svg"
   inkscape:version="1.2.2 (1:1.2.2+202212051550+b0a8486541)"
   inkscape:export-filename="\\nacl2svm1.ukt.ad.local\mkcuesj1\UserProfile\Downloads\neckaR.png"
   inkscape:export-xdpi="299"
   inkscape:export-ydpi="299"
   xmlns:inkscape="http://www.inkscape.org/namespaces/inkscape"
   xmlns:sodipodi="http://sodipodi.sourceforge.net/DTD/sodipodi-0.dtd"
   xmlns="http://www.w3.org/2000/svg"
   xmlns:svg="http://www.w3.org/2000/svg"><defs
   id="defs3547"><rect
   x="-1404.2392"
   y="383.76722"
   width="706.48057"
   height="453.54308"
   id="rect687" /><rect
   x="471.31657"
   y="1319.639"
   width="1347.8111"
   height="1067.3755"
   id="rect11513" />
	
	
		<linearGradient
   id="SVGID_1_"
   gradientUnits="userSpaceOnUse"
   x1="1255.8529"
   y1="1275.3164"
   x2="1260.313"
   y2="-314.8908"
   gradientTransform="matrix(1,0,0,-1,-2483.3242,1286.6264)">
		<stop
   offset="0"
   style="stop-color:#FFFFFF;stop-opacity:0.83"
   id="stop3439" />
		<stop
   offset="0.56"
   style="stop-color:#FFFFFF;stop-opacity:0.37"
   id="stop3441" />
		<stop
   offset="1"
   style="stop-color:#FFFFFF;stop-opacity:0"
   id="stop3443" />
	</linearGradient>
	
	
	
	
	
	
	
	
	
	
	
	
	
	
	
	
	
	
	
	
	
	
	
	
	
		
	
	
	
	
	
	
	
	
	
	
	
	
	
	
	
	
	
	
		
	
	
	
	
	
<rect
   x="-1404.2392"
   y="383.76722"
   width="706.48057"
   height="453.54308"
   id="rect107866" /><rect
   x="-1404.2392"
   y="383.76722"
   width="706.48057"
   height="453.54308"
   id="rect113026" /></defs><sodipodi:namedview
   id="namedview3545"
   pagecolor="#ffffff"
   bordercolor="#000000"
   borderopacity="0.25"
   inkscape:showpageshadow="2"
   inkscape:pageopacity="0.0"
   inkscape:pagecheckerboard="0"
   inkscape:deskcolor="#d1d1d1"
   showgrid="false"
   inkscape:zoom="0.5"
   inkscape:cx="883"
   inkscape:cy="1741"
   inkscape:window-width="1856"
   inkscape:window-height="1133"
   inkscape:window-x="64"
   inkscape:window-y="30"
   inkscape:window-maximized="1"
   inkscape:current-layer="Layer_1"
   inkscape:pageshadow="0"
   showguides="true"><sodipodi:guide
     position="1271.3525,1861.8758"
     orientation="1,0"
     id="guide353"
     inkscape:locked="false" /></sodipodi:namedview>
<style
   type="text/css"
   id="style3435">
	.st0{fill:#36A85D;}
	.st1{opacity:0.25;fill:url(#SVGID_1_);enable-background:new    ;}
	.st2{fill:#22834A;}
	.st3{fill:#E6B35A;}
	.st4{fill:#FFFFFF;}
	.st5{fill:#298F4D;}
</style>

<g
   id="g1119"
   transform="matrix(0.27927307,0,0,0.27927307,724.3187,2117.8563)"
   inkscape:export-filename="neckaR.png"
   inkscape:export-xdpi="300"
   inkscape:export-ydpi="300"><path
     class="st0"
     d="m 798.76793,-1698.5155 v -1339.6 l 172.4,-99.5 987.59997,-570.1 v 0 l 990.1,571.5 170,98 v 1339.6 l -1160,669.7 z"
     id="path3437" /><path
     class="st2"
     d="m 3219.2679,-1644.0155 v -1455.4 l -100.5,-58 -953.1,-550.3 -206.9,-119.5 -206.9,119.5 -953.09997,550.2 -100.5,58.1 v 1455.5 l 100.5,58 964.99997,557.1 195,112.6 195,-112.6 964.9,-557.1 z m -2420.49997,-54.5 v -1339.6 l 172.4,-99.5 987.59997,-570.1 v 0 l 990,571.5 170,98 v 1339.6 l -1160,669.7 z"
     id="path3448"
     style="fill:#e6e6e6" /><path
     class="st3"
     d="m 1957.0679,-1655.9155 c 1,-1 2.1,-2 3.2,-3.1 h -0.9 c -0.6,1.1 -1.4,2.1 -2.3,3.1 z"
     id="path3450" /><path
     class="st5"
     d="m 2371.0679,-2074.8155 c -0.5,0 -1,0.4 -1.4,0.3 -0.5,-0.2 -0.8,-0.8 -0.6,-1.3 0.1,-0.2 0.2,-0.4 0.4,-0.5 0.4,-0.2 0.9,-0.2 1.3,0 0.4,0.3 0.3,1 0.3,1.5 z"
     id="path3472" /><polygon
     class="st5"
     points="814.4,1282.4 814.5,1282.4 "
     id="polygon3496"
     transform="translate(698.26793,-3827.2155)" /><path
     class="st5"
     d="m 1756.9679,-2392.3155 c 0.2,0.4 0.5,0.7 1,0.7 z"
     id="path3502" /><path
     class="st5"
     d="m 1778.1679,-2381.8155 c -0.1,-0.4 -0.4,-0.7 -0.9,-0.7 z"
     id="path3504" /><path
     class="st4"
     d="m 2353.9679,-2105.7155 c -0.5,0 -1,0.4 -1.4,0.3 -0.5,-0.2 -0.8,-0.8 -0.6,-1.3 0.1,-0.2 0.2,-0.4 0.4,-0.5 0.4,-0.2 0.9,-0.2 1.3,0 0.3,0.4 0.2,1 0.3,1.5 z"
     id="path3508" /><polygon
     class="st4"
     points="797.3,1251.5 797.3,1251.6 797.2,1251.6 "
     id="polygon3532"
     transform="translate(698.26793,-3827.2155)" /><path
     class="st4"
     d="m 1739.7679,-2423.2155 c 0.2,0.4 0.5,0.7 1,0.7 z"
     id="path3538" /><path
     class="st4"
     d="m 1761.0679,-2412.7155 c -0.1,-0.4 -0.4,-0.7 -0.9,-0.7 z"
     id="path3540" /><path
     id="path10007"
     class="st0"
     d="m 3118.7679,-2845.6472 c -11.0832,0.01 -22.2808,-0.073 -33.0683,0.1602 -17.152,0.3705 -33.9362,1.024 -50.3633,1.9511 -16.4271,0.9272 -32.4985,2.1282 -48.2285,3.5938 -15.7301,1.4656 -31.1189,3.1956 -46.1797,5.1816 -15.0608,1.986 -29.7936,4.2266 -44.2129,6.7149 -14.4193,2.4882 -28.5244,5.2248 -42.3301,8.1972 -13.8057,2.9724 -27.3114,6.1808 -40.5312,9.6192 -13.2199,3.4384 -26.1546,7.1058 -38.8164,10.9922 -12.6618,3.8863 -25.0501,7.9925 -37.1817,12.3086 -12.1316,4.3161 -24.0056,8.8425 -35.6347,13.5703 -11.6292,4.7278 -23.0135,9.656 -34.168,14.7773 -11.1546,5.1214 -22.0794,10.4349 -32.7871,15.9317 -10.7078,5.4967 -21.1995,11.1771 -31.4883,17.0312 -10.2888,5.8541 -20.3739,11.8829 -30.2715,18.0762 -9.8976,6.1933 -19.6064,12.552 -29.1406,19.0664 -9.5342,6.5143 -18.8951,13.1846 -28.0938,20.0019 -18.3973,13.6346 -36.1511,27.8561 -53.373,42.5938 -17.222,14.7377 -33.9107,29.9916 -50.1797,45.6875 -16.269,15.6959 -32.1176,31.8346 -47.6563,48.3437 -15.5386,16.5092 -30.7681,33.3871 -45.7988,50.5645 -15.0306,17.1774 -29.8623,34.6528 -44.6074,52.3535 -14.7451,17.7007 -29.4038,35.6279 -44.0859,53.707 -29.3643,36.1583 -58.8245,72.9284 -89.2715,109.7305 -15.2235,18.4011 -30.6936,36.8097 -46.5215,55.1543 -15.8279,18.3446 -32.0132,36.6244 -48.668,54.7676 -16.6547,18.1432 -33.7783,36.1504 -51.4824,53.9473 -17.7041,17.7968 -35.9889,35.3839 -54.9648,52.6894 -18.976,17.3056 -38.6431,34.3287 -59.1133,50.9981 -20.4702,16.6693 -41.7447,32.9849 -63.9317,48.873 -11.0934,7.9441 -22.4141,15.7804 -33.9785,23.502 -11.5644,7.7215 -23.3724,15.3276 -35.4355,22.8085 -12.0631,7.481 -24.3811,14.8383 -36.9707,22.0606 -12.5896,7.2223 -25.4498,14.3104 -38.5938,21.2559 -13.1439,6.9454 -26.5727,13.7479 -40.2988,20.3984 -13.7261,6.6505 -27.7499,13.1489 -42.0859,19.4863 -14.3361,6.3375 -28.9833,12.5133 -43.9571,18.5196 -14.9738,6.0062 -30.2747,11.843 -45.914,17.5 -15.6394,5.6569 -31.6185,11.1343 -47.9512,16.4238 -16.3327,5.2895 -33.0184,10.3909 -50.0723,15.2949 -17.0539,4.904 -34.4764,9.611 -52.2793,14.1113 -17.8029,4.5004 -35.9867,8.7945 -54.5664,12.8731 -18.5797,4.0785 -37.5551,7.9414 -56.9394,11.5801 -19.3844,3.6386 -39.1778,7.0517 -59.3946,10.2324 -20.2167,3.1806 -40.8566,6.1275 -61.9336,8.832 -21.0769,2.7045 -42.5896,5.1667 -64.5546,7.377 -21.9651,2.2102 -44.3829,4.1693 -67.2637,5.8671 -22.8809,1.6979 -46.2263,3.1354 -70.0508,4.3028 -23.8245,1.1674 -48.1278,2.0648 -72.9238,2.6836 -13.9822,0.3489 -28.4892,0.4003 -42.7871,0.5703 v 81.5683 l 1160.1015,673.5997 1160,-673.6993 z"
     style="fill:#394032;fill-opacity:1"
     sodipodi:nodetypes="cssssssssssssssssssssssssssssssssssssssssssssssssccccc" /><path
     style="fill:none;stroke:#007999;stroke-width:300;stroke-dasharray:none;stroke-opacity:1"
     d="M 765.67482,-1779.6429 C 2416.5714,-1782.9756 1992.4767,-2965.5114 3138.3775,-2952.4411"
     id="path10524"
     sodipodi:nodetypes="cc" /><path
     class="st2"
     d="m 3219.2679,-1644.0155 v -1455.4 l -100.5,-58 -953.1,-550.3 -206.9,-119.5 -206.9,119.5 -953.09997,550.2 -100.5,58.1 v 1455.5 l 100.5,58 964.99997,557.1 195,112.6 195,-112.6 964.9,-557.1 z m -2420.49997,-54.5 v -1339.6 l 172.4,-99.5 987.59997,-570.1 v 0 l 990,571.5 170,98 v 1339.6 l -1160,669.7 z"
     id="path10468"
     style="fill:#e2e8dd;fill-opacity:1" /><text
     xml:space="preserve"
     id="text685"
     style="font-style:normal;font-variant:normal;font-weight:normal;font-stretch:normal;font-size:40px;line-height:1.25;font-family:monospace;-inkscape-font-specification:monospace;white-space:pre;shape-inside:url(#rect687);display:inline;fill:#e2e8dd;fill-opacity:1;stroke:#5b5941;stroke-width:0.443494;stroke-miterlimit:4;stroke-dasharray:none;stroke-opacity:1"
     transform="matrix(16.147807,0,0,16.147807,23457.933,-8976.2909)"><tspan
       x="-1404.2383"
       y="420.76758"
       id="tspan541"><tspan
         style="font-family:FreeMono;-inkscape-font-specification:FreeMono;stroke:#593d3b"
         id="tspan539">neckaR</tspan></tspan></text></g><text
   xml:space="preserve"
   style="font-style:normal;font-weight:normal;font-size:40px;line-height:1.25;font-family:sans-serif;fill:#000000;fill-opacity:1;stroke:none"
   x="2875"
   y="1765.625"
   id="text68380"><tspan
     sodipodi:role="line"
     id="tspan68378" /></text><g
   id="g1055"
   transform="matrix(0.27927307,0,0,0.27927307,658.91286,2120.3247)"><path
     class="st0"
     d="m -2051.7563,-1707.3543 v -1339.6 l 172.4,-99.5 987.60003,-570.1 v 0 l 990.1,571.5 170,98 v 1339.6 l -1160,669.7 z"
     id="path107834" /><path
     class="st2"
     d="m 368.74373,-1652.8543 v -1455.4 l -100.5,-58 -953.1,-550.3 -206.9,-119.5 -206.90003,119.5 -953.1,550.2 -100.5,58.1 v 1455.5 l 100.5,58 965,557.1 195.00003,112.6 195,-112.6 964.9,-557.1 z m -2420.50003,-54.5 v -1339.6 l 172.4,-99.5 987.60003,-570.1 v 0 l 990,571.5 170,98 v 1339.6 l -1160,669.7 z"
     id="path107836"
     style="fill:#e6e6e6" /><path
     class="st3"
     d="m -893.45627,-1664.7543 c 1,-1 2.1,-2 3.2,-3.1 h -0.9 c -0.6,1.1 -1.4,2.1 -2.3,3.1 z"
     id="path107838" /><path
     class="st5"
     d="m -479.45627,-2083.6543 c -0.5,0 -1,0.4 -1.4,0.3 -0.5,-0.2 -0.8,-0.8 -0.6,-1.3 0.1,-0.2 0.2,-0.4 0.4,-0.5 0.4,-0.2 0.9,-0.2 1.3,0 0.4,0.3 0.3,1 0.3,1.5 z"
     id="path107840" /><polygon
     class="st5"
     points="814.5,1282.4 814.4,1282.4 "
     id="polygon107842"
     transform="translate(-2152.2563,-3836.0543)" /><path
     class="st5"
     d="m -1093.5563,-2401.1543 c 0.2,0.4 0.5,0.7 1,0.7 z"
     id="path107844" /><path
     class="st5"
     d="m -1072.3563,-2390.6543 c -0.1,-0.4 -0.4,-0.7 -0.9,-0.7 z"
     id="path107846" /><path
     class="st4"
     d="m -496.55627,-2114.5543 c -0.5,0 -1,0.4 -1.4,0.3 -0.5,-0.2 -0.8,-0.8 -0.6,-1.3 0.1,-0.2 0.2,-0.4 0.4,-0.5 0.4,-0.2 0.9,-0.2 1.3,0 0.3,0.4 0.2,1 0.3,1.5 z"
     id="path107848" /><polygon
     class="st4"
     points="797.3,1251.6 797.2,1251.6 797.3,1251.5 "
     id="polygon107850"
     transform="translate(-2152.2563,-3836.0543)" /><path
     class="st4"
     d="m -1110.7563,-2432.0543 c 0.2,0.4 0.5,0.7 1,0.7 z"
     id="path107852" /><path
     class="st4"
     d="m -1089.4563,-2421.5543 c -0.1,-0.4 -0.4,-0.7 -0.9,-0.7 z"
     id="path107854" /><path
     id="path107856"
     class="st0"
     d="m 268.24373,-2854.486 c -11.0832,0.01 -22.2808,-0.073 -33.0683,0.1602 -17.152,0.3705 -33.9362,1.024 -50.3633,1.9511 -16.4271,0.9272 -32.4985,2.1282 -48.2285,3.5938 -15.7301,1.4656 -31.1189,3.1956 -46.1797,5.1816 -15.0608,1.986 -29.7936,4.2266 -44.2129,6.7149 -14.4193,2.4882 -28.5244,5.2248 -42.3301,8.1972 -13.8057,2.9724 -27.3114,6.1808 -40.5312,9.6192 -13.2199,3.4384 -26.1546,7.1058 -38.8164,10.9922 -12.6618,3.8863 -25.0501,7.9925 -37.1817,12.3086 -12.1316,4.3161 -24.0056,8.8425 -35.6347,13.5703 -11.6292,4.7278 -23.0135,9.656 -34.168,14.7773 -11.1546,5.1214 -22.0794,10.4349 -32.7871,15.9317 -10.7078,5.4967 -21.1995,11.1771 -31.4883,17.0312 -10.2888,5.8541 -20.3739,11.8829 -30.2715,18.0762 -9.8976,6.1933 -19.6064,12.552 -29.1406,19.0664 -9.5342,6.5143 -18.8951,13.1846 -28.0938,20.0019 -18.3973,13.6346 -36.1511,27.8561 -53.373,42.5938 -17.222,14.7377 -33.9107,29.9916 -50.1797,45.6875 -16.269,15.6959 -32.1176,31.8346 -47.6563,48.3437 -15.5386,16.5092 -30.7681,33.3871 -45.7988,50.5645 -15.0306,17.1774 -29.8623,34.6528 -44.6074,52.3535 -14.7451,17.7007 -29.4038,35.6279 -44.0859,53.707 -29.3643,36.1583 -58.8245,72.9284 -89.2715,109.7305 -15.2235,18.4011 -30.6936,36.8097 -46.5215,55.1543 -15.8279,18.3446 -32.0132,36.6244 -48.668,54.7676 -16.6547,18.1432 -33.7783,36.1504 -51.4824,53.9473 -17.7041,17.7968 -35.9889,35.3839 -54.9648,52.6894 -18.976,17.3056 -38.6431,34.3287 -59.1133,50.9981 -20.4702,16.6693 -41.74473,32.9849 -63.93173,48.873 -11.0934,7.9441 -22.4141,15.7804 -33.9785,23.502 -11.5644,7.7215 -23.3724,15.3276 -35.4355,22.8085 -12.0631,7.481 -24.3811,14.8383 -36.9707,22.0606 -12.5896,7.2223 -25.4498,14.3104 -38.5938,21.2559 -13.1439,6.9454 -26.5727,13.7479 -40.2988,20.3984 -13.7261,6.6505 -27.7499,13.1489 -42.0859,19.4863 -14.3361,6.3375 -28.9833,12.5133 -43.9571,18.5196 -14.9738,6.0062 -30.2747,11.843 -45.914,17.5 -15.6394,5.6569 -31.6185,11.1343 -47.9512,16.4238 -16.3327,5.2895 -33.0184,10.3909 -50.0723,15.2949 -17.0539,4.904 -34.4764,9.611 -52.2793,14.1113 -17.8029,4.5004 -35.9867,8.7945 -54.5664,12.8731 -18.5797,4.0785 -37.5551,7.9414 -56.9394,11.5801 -19.3844,3.6386 -39.1778,7.0517 -59.3946,10.2324 -20.2167,3.1806 -40.8566,6.1275 -61.9336,8.832 -21.0769,2.7045 -42.5896,5.1667 -64.5546,7.377 -21.9651,2.2102 -44.3829,4.1693 -67.2637,5.8671 -22.8809,1.6979 -46.2263,3.1354 -70.0508,4.3028 -23.8245,1.1674 -48.1278,2.0648 -72.9238,2.6836 -13.9822,0.3489 -28.4892,0.4003 -42.7871,0.5703 v 81.5683 l 1160.10153,673.5997 1160,-673.6993 z"
     style="fill:#5b5942;fill-opacity:1"
     sodipodi:nodetypes="cssssssssssssssssssssssssssssssssssssssssssssssssccccc" /><path
     style="fill:none;stroke:#007999;stroke-width:300;stroke-dasharray:none;stroke-opacity:1"
     d="m -2084.8494,-1788.4817 c 1650.89663,-3.3327 1226.80193,-1185.8685 2372.70273,-1172.7982"
     id="path107858"
     sodipodi:nodetypes="cc" /><path
     class="st2"
     d="m 368.74373,-1652.8543 v -1455.4 l -100.5,-58 -953.1,-550.3 -206.9,-119.5 -206.90003,119.5 -953.1,550.2 -100.5,58.1 v 1455.5 l 100.5,58 965,557.1 195.00003,112.6 195,-112.6 964.9,-557.1 z m -2420.50003,-54.5 v -1339.6 l 172.4,-99.5 987.60003,-570.1 v 0 l 990,571.5 170,98 v 1339.6 l -1160,669.7 z"
     id="path107860"
     style="fill:#e2e8dd;fill-opacity:1" /><text
     xml:space="preserve"
     id="text107864"
     style="font-style:normal;font-variant:normal;font-weight:normal;font-stretch:normal;font-size:40px;line-height:1.25;font-family:monospace;-inkscape-font-specification:monospace;white-space:pre;shape-inside:url(#rect107866);display:inline;fill:#e2e8dd;fill-opacity:1;stroke:#5b5941;stroke-width:0.443494;stroke-miterlimit:4;stroke-dasharray:none;stroke-opacity:1"
     transform="matrix(16.147807,0,0,16.147807,20607.409,-8985.1297)"><tspan
       x="-1404.2383"
       y="420.76758"
       id="tspan545"><tspan
         style="font-family:FreeMono;-inkscape-font-specification:FreeMono;stroke:#593d3b"
         id="tspan543">neckaR</tspan></tspan></text></g><g
   id="g1188"
   transform="matrix(0.27927307,0,0,0.27927307,665.06787,2121.5589)"><g
     id="g1168"><g
       id="g1149"><path
         class="st0"
         d="m 4095.6533,-1711.7737 v -1339.6 l 172.4,-99.5 987.6,-570.1 v 0 l 990.1,571.5 170,98 v 1339.6 l -1160,669.7 z"
         id="path112992" /><path
         class="st2"
         d="m 6516.1533,-1657.2737 v -1455.4 l -100.5,-58 -953.1,-550.3 -206.9,-119.5 -206.9,119.5 -953.1,550.2 -100.5,58.1 v 1455.5 l 100.5,58 965,557.1 195,112.60001 195,-112.60001 964.9,-557.1 z m -2420.5,-54.5 v -1339.6 l 172.4,-99.5 987.6,-570.1 v 0 l 990,571.5 170,98 v 1339.6 l -1160,669.7 z"
         id="path112994"
         style="fill:#e6e6e6" /><path
         id="path113014"
         class="st0"
         d="m 6415.6533,-2858.9054 c -11.0832,0.01 -22.2808,-0.073 -33.0683,0.1602 -17.152,0.3705 -33.9362,1.024 -50.3633,1.9511 -16.4271,0.9272 -32.4985,2.1282 -48.2285,3.5938 -15.7301,1.4656 -31.1189,3.1956 -46.1797,5.1816 -15.0608,1.986 -29.7936,4.2266 -44.2129,6.7149 -14.4193,2.4882 -28.5244,5.2248 -42.3301,8.1972 -13.8057,2.9724 -27.3114,6.1808 -40.5312,9.6192 -13.2199,3.4384 -26.1546,7.1058 -38.8164,10.9922 -12.6618,3.8863 -25.0501,7.9925 -37.1817,12.3086 -12.1316,4.3161 -24.0056,8.8425 -35.6347,13.5703 -11.6292,4.7278 -23.0135,9.656 -34.168,14.7773 -11.1546,5.1214 -22.0794,10.4349 -32.7871,15.9317 -10.7078,5.4967 -21.1995,11.1771 -31.4883,17.0312 -10.2888,5.8541 -20.3739,11.8829 -30.2715,18.0762 -9.8976,6.1933 -19.6064,12.552 -29.1406,19.0664 -9.5342,6.5143 -18.8951,13.1846 -28.0938,20.0019 -18.3973,13.6346 -36.1511,27.8561 -53.373,42.5938 -17.222,14.7377 -33.9107,29.9916 -50.1797,45.6875 -16.269,15.6959 -32.1176,31.8346 -47.6563,48.3437 -15.5386,16.5092 -30.7681,33.3871 -45.7988,50.5645 -15.0306,17.1774 -29.8623,34.6528 -44.6074,52.3535 -14.7451,17.7007 -29.4038,35.6279 -44.0859,53.707 -29.3643,36.1583 -58.8245,72.9284 -89.2715,109.7305 -15.2235,18.4011 -30.6936,36.8097 -46.5215,55.1543 -15.8279,18.3446 -32.0132,36.6244 -48.668,54.7676 -16.6547,18.1432 -33.7783,36.1504 -51.4824,53.9473 -17.7041,17.7968 -35.9889,35.3839 -54.9648,52.6894 -18.976,17.3056 -38.6431,34.3287 -59.1133,50.9981 -20.4702,16.6693 -41.7447,32.9849 -63.9317,48.873 -11.0934,7.9441 -22.4141,15.7804 -33.9785,23.502 -11.5644,7.7215 -23.3724,15.3276 -35.4355,22.8085 -12.0631,7.481 -24.3811,14.8383 -36.9707,22.0606 -12.5896,7.2223 -25.4498,14.3104 -38.5938,21.2559 -13.1439,6.9454 -26.5727,13.7479 -40.2988,20.3984 -13.7261,6.6505 -27.7499,13.1489 -42.0859,19.4863 -14.3361,6.3375 -28.9833,12.5133 -43.9571,18.5196 -14.9738,6.0062 -30.2747,11.843 -45.914,17.5 -15.6394,5.6569 -31.6185,11.1343 -47.9512,16.4238 -16.3327,5.2895 -33.0184,10.3909 -50.0723,15.2949 -17.0539,4.904 -34.4764,9.611 -52.2793,14.1113 -17.8029,4.5004 -35.9867,8.7945 -54.5664,12.8731 -18.5797,4.0785 -37.5551,7.9414 -56.9394,11.5801 -19.3844,3.6386 -39.1778,7.0517 -59.3946,10.2324 -20.2167,3.1806 -40.8566,6.1275 -61.9336,8.832 -21.0769,2.7045 -42.5896,5.1667 -64.5546,7.377 -21.9651,2.2102 -44.3829,4.1693 -67.2637,5.8671 -22.8809,1.6979 -46.2263,3.1354 -70.0508,4.3028 -23.8245,1.1674 -48.1278,2.0648 -72.9238,2.6836 -13.9822,0.3489 -28.4892,0.4003 -42.7871,0.5703 v 81.5683 l 1160.1015,673.59971 1160,-673.69931 z"
         style="fill:#36a85d;fill-opacity:1"
         sodipodi:nodetypes="cssssssssssssssssssssssssssssssssssssssssssssssssccccc" /><path
         class="st3"
         d="m 5253.9533,-1669.1737 c 1,-1 2.1,-2 3.2,-3.1 h -0.9 c -0.6,1.1 -1.4,2.1 -2.3,3.1 z"
         id="path112996" /><path
         class="st5"
         d="m 5667.9533,-2088.0737 c -0.5,0 -1,0.4 -1.4,0.3 -0.5,-0.2 -0.8,-0.8 -0.6,-1.3 0.1,-0.2 0.2,-0.4 0.4,-0.5 0.4,-0.2 0.9,-0.2 1.3,0 0.4,0.3 0.3,1 0.3,1.5 z"
         id="path112998" /><polygon
         class="st5"
         points="814.4,1282.4 814.5,1282.4 "
         id="polygon113000"
         transform="translate(3995.1533,-3840.4737)" /><path
         class="st5"
         d="m 5053.8533,-2405.5737 c 0.2,0.4 0.5,0.7 1,0.7 z"
         id="path113002" /><path
         class="st5"
         d="m 5075.0533,-2395.0737 c -0.1,-0.4 -0.4,-0.7 -0.9,-0.7 z"
         id="path113004" /><path
         class="st4"
         d="m 5650.8533,-2118.9737 c -0.5,0 -1,0.4 -1.4,0.3 -0.5,-0.2 -0.8,-0.8 -0.6,-1.3 0.1,-0.2 0.2,-0.4 0.4,-0.5 0.4,-0.2 0.9,-0.2 1.3,0 0.3,0.4 0.2,1 0.3,1.5 z"
         id="path113006" /><polygon
         class="st4"
         points="797.2,1251.6 797.3,1251.5 797.3,1251.6 "
         id="polygon113008"
         transform="translate(3995.1533,-3840.4737)" /><path
         class="st4"
         d="m 5036.6533,-2436.4737 c 0.2,0.4 0.5,0.7 1,0.7 z"
         id="path113010" /><path
         class="st4"
         d="m 5057.9533,-2425.9737 c -0.1,-0.4 -0.4,-0.7 -0.9,-0.7 z"
         id="path113012" /><path
         style="fill:none;stroke:#007999;stroke-width:300;stroke-dasharray:none;stroke-opacity:1"
         d="m 4062.5602,-1792.9011 c 1650.8966,-3.3327 1226.8019,-1185.8685 2372.7027,-1172.7982"
         id="path113016"
         sodipodi:nodetypes="cc" /><text
         xml:space="preserve"
         id="text113022"
         style="font-style:normal;font-variant:normal;font-weight:normal;font-stretch:normal;font-size:40px;line-height:1.25;font-family:monospace;-inkscape-font-specification:monospace;white-space:pre;shape-inside:url(#rect113026);display:inline;fill:#e2e8dd;fill-opacity:1;stroke:#5b5941;stroke-width:0.443494;stroke-miterlimit:4;stroke-dasharray:none;stroke-opacity:1"
         transform="matrix(16.147807,0,0,16.147807,26754.818,-8989.5491)"><tspan
           x="-1404.2383"
           y="420.76758"
           id="tspan549"><tspan
             style="font-family:FreeMono;-inkscape-font-specification:FreeMono;stroke:#593d3b"
             id="tspan547">neckaR</tspan></tspan></text><path
         class="st2"
         d="m 6516.1533,-1657.2737 v -1455.4 l -100.5,-58 -953.1,-550.3 -206.9,-119.5 -206.9,119.5 -953.1,550.2 -100.5,58.1 v 1455.5 l 100.5,58 965,557.1 195,112.60001 195,-112.60001 964.9,-557.1 z m -2420.5,-54.5 v -1339.6 l 172.4,-99.5 987.6,-570.1 v 0 l 990,571.5 170,98 v 1339.6 l -1160,669.7 z"
         id="path113018"
         style="fill:#e2e8dd;fill-opacity:1" /></g></g></g></svg>
